<svg width="24" height="24" viewBox="0 0 24 24" fill="none" xmlns="http://www.w3.org/2000/svg">
<path fill-rule="evenodd" clip-rule="evenodd" d="M12 7.75C10.7574 7.75 9.75 8.75736 9.75 10C9.75 11.2426 10.7574 12.25 12 12.25C13.2426 12.25 14.25 11.2426 14.25 10C14.25 8.75736 13.2426 7.75 12 7.75ZM8.25 10C8.25 7.92893 9.92893 6.25 12 6.25C14.0711 6.25 15.75 7.92893 15.75 10C15.75 12.0711 14.0711 13.75 12 13.75C9.92893 13.75 8.25 12.0711 8.25 10Z" fill="#6D6D6D"/>
<path fill-rule="evenodd" clip-rule="evenodd" d="M12 2.75C7.99594 2.75 4.75 5.99594 4.75 10C4.75 13.431 6.6023 16.2532 8.53971 18.2611C9.50222 19.2586 10.4669 20.035 11.1911 20.5616C11.5191 20.8002 11.7964 20.9865 12 21.118C12.2036 20.9865 12.4809 20.8002 12.8089 20.5616C13.5331 20.035 14.4978 19.2586 15.4603 18.2611C17.3977 16.2532 19.25 13.431 19.25 10C19.25 5.99594 16.0041 2.75 12 2.75ZM12 22C11.6273 22.6508 11.627 22.6507 11.6267 22.6505L11.624 22.649L11.6179 22.6454L11.5971 22.6332C11.5794 22.6229 11.5545 22.6081 11.5226 22.5888C11.4588 22.5503 11.3675 22.4941 11.2524 22.4206C11.0225 22.2737 10.6974 22.0573 10.3089 21.7747C9.53307 21.2105 8.49778 20.3778 7.46029 19.3026C5.3977 17.1651 3.25 13.9872 3.25 10C3.25 5.16751 7.16751 1.25 12 1.25C16.8325 1.25 20.75 5.16751 20.75 10C20.75 13.9872 18.6023 17.1651 16.5397 19.3026C15.5022 20.3778 14.4669 21.2105 13.6911 21.7747C13.3026 22.0573 12.9775 22.2737 12.7476 22.4206C12.6325 22.4941 12.5412 22.5503 12.4774 22.5888C12.4455 22.6081 12.4206 22.6229 12.4029 22.6332L12.3821 22.6454L12.376 22.649L12.374 22.6501C12.3737 22.6503 12.3727 22.6508 12 22ZM12 22L12.3727 22.6508C12.1418 22.7831 11.8576 22.7828 11.6267 22.6505L12 22Z" fill="#6D6D6D"/>
</svg>
