<svg width="1440" height="271" viewBox="0 0 1440 271" fill="none" xmlns="http://www.w3.org/2000/svg">
<path d="M-25.744 264.364L-28.2091 266.073L-27.3143 267.364H-25.744V264.364ZM-104.864 150.284L-102.399 148.574L-103.294 147.284H-104.864V150.284ZM-125.84 150.284V147.284H-128.84V150.284H-125.84ZM-125.84 264.364V267.364H-122.84V264.364H-125.84ZM-192.08 264.364H-195.08V267.364H-192.08V264.364ZM-192.08 6.76375V3.76375H-195.08V6.76375H-192.08ZM-35.68 11.5478L-36.1924 14.5037L-36.1732 14.507L-36.154 14.5101L-35.68 11.5478ZM11.424 31.7878L9.53389 34.1174L9.54453 34.1261L9.55524 34.1346L11.424 31.7878ZM-38.256 146.604L-38.7263 143.641L-43.5762 144.411L-40.6776 148.375L-38.256 146.604ZM47.856 264.364V267.364H53.7663L50.2776 262.593L47.856 264.364ZM-125.84 9.70776V6.70776H-128.84V9.70776H-125.84ZM-125.84 147.34H-128.84V150.34H-125.84V147.34ZM-51.504 129.676L-49.3154 131.728L-49.3048 131.716L-49.2944 131.705L-51.504 129.676ZM-50.032 27.0038L-52.3166 28.9481L-52.2944 28.9742L-52.2715 28.9999L-50.032 27.0038ZM-25.744 264.364L-23.2789 262.654L-102.399 148.574L-104.864 150.284L-107.329 151.993L-28.2091 266.073L-25.744 264.364ZM-104.864 150.284V147.284H-125.84V150.284V153.284H-104.864V150.284ZM-125.84 150.284H-128.84V264.364H-125.84H-122.84V150.284H-125.84ZM-125.84 264.364V261.364H-192.08V264.364V267.364H-125.84V264.364ZM-192.08 264.364H-189.08V6.76375H-192.08H-195.08V264.364H-192.08ZM-192.08 6.76375V9.76375H-97.136V6.76375V3.76375H-192.08V6.76375ZM-97.136 6.76375V9.76375C-74.7029 9.76375 -54.3925 11.349 -36.1924 14.5037L-35.68 11.5478L-35.1676 8.59183C-53.7675 5.36786 -74.4278 3.76375 -97.136 3.76375V6.76375ZM-35.68 11.5478L-36.154 14.5101C-18.2133 17.3806 -3.01561 23.9358 9.53389 34.1174L11.424 31.7878L13.3141 29.4581C-0.141708 18.5411 -16.3467 11.6029 -35.206 8.58543L-35.68 11.5478ZM11.424 31.7878L9.55524 34.1346C21.9328 43.9908 28.296 58.6101 28.296 78.5238H31.296H34.296C34.296 57.2214 27.4112 40.6834 13.2928 29.4409L11.424 31.7878ZM31.296 78.5238H28.296C28.296 96.8806 22.7258 111.235 11.8095 121.92C0.82074 132.676 -15.8937 140.017 -38.7263 143.641L-38.256 146.604L-37.7857 149.567C-14.2503 145.831 3.81129 138.145 16.0065 126.208C28.2743 114.2 34.296 98.1936 34.296 78.5238H31.296ZM-38.256 146.604L-40.6776 148.375L45.4344 266.135L47.856 264.364L50.2776 262.593L-35.8344 144.833L-38.256 146.604ZM47.856 264.364V261.364H-25.744V264.364V267.364H47.856V264.364ZM-125.84 9.70776H-128.84V147.34H-125.84H-122.84V9.70776H-125.84ZM-125.84 147.34V150.34H-97.136V147.34V144.34H-125.84V147.34ZM-97.136 147.34V150.34C-77.1054 150.34 -61.0349 144.228 -49.3154 131.728L-51.504 129.676L-53.6926 127.624C-64.0531 138.675 -78.4039 144.34 -97.136 144.34V147.34ZM-51.504 129.676L-49.2944 131.705C-37.5894 118.96 -31.944 101.086 -31.944 78.5238H-34.944H-37.944C-37.944 100.121 -43.3385 116.349 -53.7136 127.647L-51.504 129.676ZM-34.944 78.5238H-31.944C-31.944 55.0997 -37.0423 37.0688 -47.7924 25.0076L-50.032 27.0038L-52.2715 28.9999C-42.9044 39.5094 -37.944 55.8252 -37.944 78.5238H-34.944ZM-50.032 27.0038L-47.7474 25.0594C-58.3414 12.6115 -75.0547 6.70776 -97.136 6.70776V9.70776V12.7078C-76.0387 12.7078 -61.3493 18.3347 -52.3166 28.9481L-50.032 27.0038ZM-97.136 9.70776V6.70776H-125.84V9.70776V12.7078H-97.136V9.70776ZM154.832 134.092V131.092H151.832V134.092H154.832ZM154.832 261.42H151.832V264.42H154.832V261.42ZM285.84 261.42H288.84V258.42H285.84V261.42ZM285.84 264.364V267.364H288.84V264.364H285.84ZM88.5919 264.364H85.5919V267.364H88.5919V264.364ZM88.5919 6.76375V3.76375H85.5919V6.76375H88.5919ZM282.16 6.76375H285.16V3.76375H282.16V6.76375ZM282.16 9.70776V12.7078H285.16V9.70776H282.16ZM154.832 9.70776V6.70776H151.832V9.70776H154.832ZM154.832 131.148H151.832V134.148H154.832V131.148ZM261.92 131.148H264.92V128.148H261.92V131.148ZM261.92 134.092V137.092H264.92V134.092H261.92ZM154.832 134.092H151.832V261.42H154.832H157.832V134.092H154.832ZM154.832 261.42V264.42H285.84V261.42V258.42H154.832V261.42ZM285.84 261.42H282.84V264.364H285.84H288.84V261.42H285.84ZM285.84 264.364V261.364H88.5919V264.364V267.364H285.84V264.364ZM88.5919 264.364H91.5919V6.76375H88.5919H85.5919V264.364H88.5919ZM88.5919 6.76375V9.76375H282.16V6.76375V3.76375H88.5919V6.76375ZM282.16 6.76375H279.16V9.70776H282.16H285.16V6.76375H282.16ZM282.16 9.70776V6.70776H154.832V9.70776V12.7078H282.16V9.70776ZM154.832 9.70776H151.832V131.148H154.832H157.832V9.70776H154.832ZM154.832 131.148V134.148H261.92V131.148V128.148H154.832V131.148ZM261.92 131.148H258.92V134.092H261.92H264.92V131.148H261.92ZM261.92 134.092V131.092H154.832V134.092V137.092H261.92V134.092ZM546.562 181.196L544.676 183.528L549.562 187.48V181.196H546.562ZM546.562 6.76375V3.76375H543.562V6.76375H546.562ZM549.506 6.76375H552.506V3.76375H549.506V6.76375ZM549.506 267.308V270.308H552.506V267.308H549.506ZM548.77 267.308L546.884 269.64L547.709 270.308H548.77V267.308ZM329.442 89.9318L331.329 87.5991L326.442 83.6473V89.9318H329.442ZM329.442 264.364V267.364H332.442V264.364H329.442ZM326.498 264.364H323.498V267.364H326.498V264.364ZM326.498 3.81977V0.819767H323.498V3.81977H326.498ZM327.234 3.81977L329.121 1.48712L328.295 0.819767H327.234V3.81977ZM546.562 181.196H549.562V6.76375H546.562H543.562V181.196H546.562ZM546.562 6.76375V9.76375H549.506V6.76375V3.76375H546.562V6.76375ZM549.506 6.76375H546.506V267.308H549.506H552.506V6.76375H549.506ZM549.506 267.308V264.308H548.77V267.308V270.308H549.506V267.308ZM548.77 267.308L550.657 264.975L331.329 87.5991L329.442 89.9318L327.556 92.2644L546.884 269.64L548.77 267.308ZM329.442 89.9318H326.442V264.364H329.442H332.442V89.9318H329.442ZM329.442 264.364V261.364H326.498V264.364V267.364H329.442V264.364ZM326.498 264.364H329.498V3.81977H326.498H323.498V264.364H326.498ZM326.498 3.81977V6.81977H327.234V3.81977V0.819767H326.498V3.81977ZM327.234 3.81977L325.348 6.15241L544.676 183.528L546.562 181.196L548.449 178.863L329.121 1.48712L327.234 3.81977ZM817.531 181.196L815.644 183.528L820.531 187.48V181.196H817.531ZM817.531 6.76375V3.76375H814.531V6.76375H817.531ZM820.475 6.76375H823.475V3.76375H820.475V6.76375ZM820.475 267.308V270.308H823.475V267.308H820.475ZM819.739 267.308L817.852 269.64L818.678 270.308H819.739V267.308ZM600.411 89.9318L602.297 87.5991L597.411 83.6473V89.9318H600.411ZM600.411 264.364V267.364H603.411V264.364H600.411ZM597.467 264.364H594.467V267.364H597.467V264.364ZM597.467 3.81977V0.819767H594.467V3.81977H597.467ZM598.203 3.81977L600.089 1.48712L599.264 0.819767H598.203V3.81977ZM817.531 181.196H820.531V6.76375H817.531H814.531V181.196H817.531ZM817.531 6.76375V9.76375H820.475V6.76375V3.76375H817.531V6.76375ZM820.475 6.76375H817.475V267.308H820.475H823.475V6.76375H820.475ZM820.475 267.308V264.308H819.739V267.308V270.308H820.475V267.308ZM819.739 267.308L821.625 264.975L602.297 87.5991L600.411 89.9318L598.524 92.2644L817.852 269.64L819.739 267.308ZM600.411 89.9318H597.411V264.364H600.411H603.411V89.9318H600.411ZM600.411 264.364V261.364H597.467V264.364V267.364H600.411V264.364ZM597.467 264.364H600.467V3.81977H597.467H594.467V264.364H597.467ZM597.467 3.81977V6.81977H598.203V3.81977V0.819767H597.467V3.81977ZM598.203 3.81977L596.316 6.15241L815.644 183.528L817.531 181.196L819.417 178.863L600.089 1.48712L598.203 3.81977ZM933.94 252.956L932.65 255.664L932.663 255.671L932.676 255.677L933.94 252.956ZM883.892 208.796L881.367 210.416L881.372 210.424L881.376 210.431L883.892 208.796ZM883.892 62.6998L886.407 64.3347L886.412 64.3276L886.416 64.3205L883.892 62.6998ZM933.94 18.5398L935.203 21.2608L935.216 21.2546L935.229 21.2483L933.94 18.5398ZM1067.16 18.5398L1065.87 21.2483L1065.88 21.2546L1065.89 21.2608L1067.16 18.5398ZM1116.84 62.6998L1114.3 64.2982L1114.31 64.3165L1114.32 64.3347L1116.84 62.6998ZM1116.84 208.796L1114.31 207.175L1114.31 207.183L1116.84 208.796ZM1067.16 252.956L1068.42 255.677L1068.43 255.671L1068.45 255.664L1067.16 252.956ZM1043.24 244.86L1040.82 243.074L1040.82 243.082L1043.24 244.86ZM1062 197.388L1059.04 196.914L1059.04 196.933L1059.04 196.952L1062 197.388ZM1062 73.7398L1059.04 74.1751L1059.04 74.1944L1059.04 74.2137L1062 73.7398ZM1043.24 26.6358L1040.8 28.3922L1040.82 28.4178L1040.84 28.443L1043.24 26.6358ZM957.124 26.6358L954.713 24.8501L954.707 24.8577L957.124 26.6358ZM938.356 73.7398L935.393 73.2658L935.39 73.2851L935.387 73.3044L938.356 73.7398ZM938.356 197.388L935.387 197.823L935.39 197.842L935.393 197.862L938.356 197.388ZM957.124 244.86L954.692 246.616L954.71 246.642L954.729 246.667L957.124 244.86ZM1000.55 267.308V264.308C977.166 264.308 955.396 259.61 935.203 250.235L933.94 252.956L932.676 255.677C953.699 265.437 976.335 270.308 1000.55 270.308V267.308ZM933.94 252.956L935.229 250.247C915.134 240.678 898.871 226.336 886.407 207.161L883.892 208.796L881.376 210.431C894.427 230.509 911.529 245.607 932.65 255.664L933.94 252.956ZM883.892 208.796L886.416 207.175C874.033 187.886 867.756 164.069 867.756 135.564H864.756H861.756C861.756 164.957 868.236 189.962 881.367 210.416L883.892 208.796ZM864.756 135.564H867.756C867.756 107.057 874.033 83.3709 886.407 64.3347L883.892 62.6998L881.376 61.0648C868.235 81.282 861.756 106.172 861.756 135.564H864.756ZM883.892 62.6998L886.416 64.3205C898.879 44.9076 915.132 30.5794 935.203 21.2608L933.94 18.5398L932.676 15.8187C911.531 25.6362 894.419 40.7479 881.367 61.0791L883.892 62.6998ZM933.94 18.5398L935.229 21.2483C955.417 11.6351 977.177 6.81977 1000.55 6.81977V3.81977V0.819767C976.324 0.819767 953.678 5.81777 932.65 15.8312L933.94 18.5398ZM1000.55 3.81977V6.81977C1023.92 6.81977 1045.68 11.6351 1065.87 21.2483L1067.16 18.5398L1068.45 15.8312C1047.42 5.81777 1024.77 0.819767 1000.55 0.819767V3.81977ZM1067.16 18.5398L1065.89 21.2608C1085.96 30.5768 1102.08 44.8981 1114.3 64.2982L1116.84 62.6998L1119.37 61.1013C1106.57 40.7574 1089.57 25.6387 1068.42 15.8187L1067.16 18.5398ZM1116.84 62.6998L1114.32 64.3347C1126.69 83.3709 1132.97 107.057 1132.97 135.564H1135.97H1138.97C1138.97 106.172 1132.49 81.282 1119.35 61.0648L1116.84 62.6998ZM1135.97 135.564H1132.97C1132.97 164.069 1126.69 187.886 1114.31 207.175L1116.84 208.796L1119.36 210.416C1132.49 189.962 1138.97 164.957 1138.97 135.564H1135.97ZM1116.84 208.796L1114.31 207.183C1102.09 226.345 1085.96 240.681 1065.87 250.247L1067.16 252.956L1068.45 255.664C1089.57 245.604 1106.56 230.5 1119.37 210.408L1116.84 208.796ZM1067.16 252.956L1065.89 250.235C1045.7 259.61 1023.93 264.308 1000.55 264.308V267.308V270.308C1024.76 270.308 1047.4 265.437 1068.42 255.677L1067.16 252.956ZM1000.55 264.364V267.364C1020.21 267.364 1035.42 260.546 1045.65 246.638L1043.24 244.86L1040.82 243.082C1031.92 255.179 1018.67 261.364 1000.55 261.364V264.364ZM1043.24 244.86L1045.65 246.645C1055.79 232.952 1062.21 216.649 1064.97 197.823L1062 197.388L1059.04 196.952C1056.4 214.927 1050.31 230.272 1040.82 243.074L1043.24 244.86ZM1062 197.388L1064.97 197.862C1067.94 179.275 1069.42 158.505 1069.42 135.564H1066.42H1063.42C1063.42 158.255 1061.96 178.701 1059.04 196.914L1062 197.388ZM1066.42 135.564H1069.42C1069.42 112.623 1067.94 91.8527 1064.97 73.2658L1062 73.7398L1059.04 74.2137C1061.96 92.4268 1063.42 112.873 1063.42 135.564H1066.42ZM1062 73.7398L1064.97 73.3044C1062.21 54.4776 1055.79 38.287 1045.63 24.8285L1043.24 26.6358L1040.84 28.443C1050.31 40.9898 1056.4 56.2019 1059.04 74.1751L1062 73.7398ZM1043.24 26.6358L1045.67 24.8793C1035.44 10.7206 1020.23 3.76375 1000.55 3.76375V6.76375V9.76375C1018.65 9.76375 1031.89 16.0549 1040.8 28.3922L1043.24 26.6358ZM1000.55 6.76375V3.76375C980.635 3.76375 965.188 10.7085 954.713 24.8501L957.124 26.6358L959.534 28.4214C968.686 16.067 982.188 9.76375 1000.55 9.76375V6.76375ZM957.124 26.6358L954.707 24.8577C944.815 38.3009 938.401 54.4669 935.393 73.2658L938.356 73.7398L941.318 74.2137C944.198 56.2126 950.296 40.976 959.54 28.4138L957.124 26.6358ZM938.356 73.7398L935.387 73.3044C932.663 91.8766 931.308 112.633 931.308 135.564H934.308H937.308C937.308 112.862 938.651 92.403 941.324 74.1751L938.356 73.7398ZM934.308 135.564H931.308C931.308 158.494 932.663 179.251 935.387 197.823L938.356 197.388L941.324 196.952C938.651 178.725 937.308 158.265 937.308 135.564H934.308ZM938.356 197.388L935.393 197.862C938.401 216.659 944.813 232.938 954.692 246.616L957.124 244.86L959.556 243.103C950.298 230.286 944.198 214.916 941.318 196.914L938.356 197.388ZM957.124 244.86L954.729 246.667C965.213 260.558 980.656 267.364 1000.55 267.364V264.364V261.364C982.167 261.364 968.661 255.167 959.518 243.053L957.124 244.86ZM1309.25 193.34L1306.56 194.654L1309.24 200.167L1311.95 194.662L1309.25 193.34ZM1400.89 6.76375V3.76375H1399.02L1398.19 5.44127L1400.89 6.76375ZM1404.2 6.76375L1406.89 8.08711L1409.02 3.76375H1404.2V6.76375ZM1276.13 267.308V270.308H1278L1278.83 268.631L1276.13 267.308ZM1275.4 267.308L1272.71 268.634L1273.53 270.308H1275.4V267.308ZM1146.97 6.76375V3.76375H1142.14L1144.27 8.09017L1146.97 6.76375ZM1218.36 6.76375L1221.05 5.44984L1220.23 3.76375H1218.36V6.76375ZM1309.25 193.34L1311.95 194.662L1403.58 8.08624L1400.89 6.76375L1398.19 5.44127L1306.56 192.017L1309.25 193.34ZM1400.89 6.76375V9.76375H1404.2V6.76375V3.76375H1400.89V6.76375ZM1404.2 6.76375L1401.51 5.4404L1273.44 265.984L1276.13 267.308L1278.83 268.631L1406.89 8.08711L1404.2 6.76375ZM1276.13 267.308V264.308H1275.4V267.308V270.308H1276.13V267.308ZM1275.4 267.308L1278.09 265.981L1149.66 5.43734L1146.97 6.76375L1144.27 8.09017L1272.71 268.634L1275.4 267.308ZM1146.97 6.76375V9.76375H1218.36V6.76375V3.76375H1146.97V6.76375ZM1218.36 6.76375L1215.66 8.07766L1306.56 194.654L1309.25 193.34L1311.95 192.026L1221.05 5.44984L1218.36 6.76375ZM1621.98 264.364V267.364H1626.8L1624.67 263.04L1621.98 264.364ZM1550.59 264.364L1547.89 265.679L1548.71 267.364H1550.59V264.364ZM1513.42 188.188L1516.12 186.872L1515.29 185.188H1513.42V188.188ZM1405.59 188.188V185.188H1403.73L1402.9 186.862L1405.59 188.188ZM1368.06 264.364V267.364H1369.93L1370.75 265.69L1368.06 264.364ZM1364.75 264.364L1362.06 263.037L1359.92 267.364H1364.75V264.364ZM1493.18 3.81977V0.819767H1491.31L1490.49 2.49335L1493.18 3.81977ZM1493.91 3.81977L1496.61 2.49641L1495.78 0.819767H1493.91V3.81977ZM1459.69 77.7878L1462.39 76.4758L1459.7 70.9474L1457 76.4683L1459.69 77.7878ZM1407.07 185.244L1404.37 183.924L1402.26 188.244H1407.07V185.244ZM1511.95 185.244V188.244H1516.74L1514.64 183.932L1511.95 185.244ZM1621.98 264.364V261.364H1550.59V264.364V267.364H1621.98V264.364ZM1550.59 264.364L1553.28 263.048L1516.12 186.872L1513.42 188.188L1510.72 189.503L1547.89 265.679L1550.59 264.364ZM1513.42 188.188V185.188H1405.59V188.188V191.188H1513.42V188.188ZM1405.59 188.188L1402.9 186.862L1365.37 263.038L1368.06 264.364L1370.75 265.69L1408.29 189.514L1405.59 188.188ZM1368.06 264.364V261.364H1364.75V264.364V267.364H1368.06V264.364ZM1364.75 264.364L1367.44 265.69L1495.87 5.14618L1493.18 3.81977L1490.49 2.49335L1362.06 263.037L1364.75 264.364ZM1493.18 3.81977V6.81977H1493.91V3.81977V0.819767H1493.18V3.81977ZM1493.91 3.81977L1491.22 5.14312L1619.29 265.687L1621.98 264.364L1624.67 263.04L1496.61 2.49641L1493.91 3.81977ZM1459.69 77.7878L1457 76.4683L1404.37 183.924L1407.07 185.244L1409.76 186.563L1462.39 79.1072L1459.69 77.7878ZM1407.07 185.244V188.244H1511.95V185.244V182.244H1407.07V185.244ZM1511.95 185.244L1514.64 183.932L1462.39 76.4758L1459.69 77.7878L1456.99 79.0998L1509.25 186.556L1511.95 185.244Z" fill="#E7EFE6"/>
</svg>
