<svg width="13" height="11" viewBox="0 0 13 11" fill="none" xmlns="http://www.w3.org/2000/svg">
<path d="M6.67058 10.7057C6.6386 10.7057 6.61728 10.7057 6.5853 10.7057C6.532 10.6954 6.45738 10.6954 6.39342 10.7057C3.30201 10.6128 0.967468 8.259 0.967468 5.35803C0.967468 2.40543 3.45125 0 6.50002 0C9.54878 0 12.0326 2.40543 12.0326 5.35803C12.0219 8.259 9.6767 10.6128 6.70256 10.7057C6.6919 10.7057 6.68124 10.7057 6.67058 10.7057ZM6.50002 1.54856C4.33603 1.54856 2.56647 3.26231 2.56647 5.35803C2.56647 7.42278 4.22943 9.0849 6.35078 9.15717C6.40408 9.14684 6.55332 9.14684 6.6919 9.15717C8.78126 9.06425 10.4229 7.40213 10.4336 5.35803C10.4336 3.26231 8.664 1.54856 6.50002 1.54856Z" fill="#6D6D6D"/>
</svg>
