<svg width="17" height="11" viewBox="0 0 17 11" fill="none" xmlns="http://www.w3.org/2000/svg">
<path d="M8.49999 11C6.41063 11 4.3106 10.4838 2.72226 9.45144C1.24052 8.50166 0.430359 7.20086 0.430359 5.78651C0.430359 4.37216 1.24052 3.06104 2.72226 2.10093C5.92027 0.0465055 11.101 0.0465055 14.2777 2.10093C15.7488 3.05072 16.5696 4.35151 16.5696 5.76586C16.5696 7.18022 15.7595 8.49133 14.2777 9.45144C12.6787 10.4838 10.5894 11 8.49999 11ZM3.60704 3.40172C2.58368 4.06244 2.02936 4.90899 2.02936 5.79683C2.02936 6.67435 2.59434 7.5209 3.60704 8.1713C6.26139 9.89536 10.7386 9.89536 13.3929 8.1713C14.4163 7.51058 14.9706 6.66403 14.9706 5.77619C14.9706 4.89867 14.4056 4.05212 13.3929 3.40172C10.7386 1.68798 6.26139 1.68798 3.60704 3.40172Z" fill="#6D6D6D"/>
</svg>
